<?xml version="1.0" encoding="utf-8"?>
<!-- Generator: Adobe Illustrator 25.3.1, SVG Export Plug-In . SVG Version: 6.00 Build 0)  -->
<svg version="1.1" id="Layer_1" xmlns="http://www.w3.org/2000/svg" xmlns:xlink="http://www.w3.org/1999/xlink" x="0px" y="0px"
	 viewBox="0 0 78 78" enable-background="new 0 0 78 78" xml:space="preserve">
<g>
	<path stroke="#000000" stroke-miterlimit="10" d="M74.65,44.79C71.92,62.02,57,75.19,39,75.19S6.08,62.02,3.35,44.79h46.67v-3.36
		h7.94v3.36H74.65z"/>
	<path stroke="#000000" stroke-miterlimit="10" d="M39,2.57C18.88,2.58,2.57,18.88,2.57,39c0,20.12,16.31,36.42,36.43,36.42
		S75.43,59.12,75.43,39C75.42,18.88,59.12,2.57,39,2.57z M39,73.96C19.69,73.96,4.04,58.31,4.04,39C4.04,19.69,19.69,4.04,39,4.04
		c19.31,0,34.96,15.65,34.96,34.96C73.96,58.31,58.31,73.96,39,73.96z"/>
	<path stroke="#000000" stroke-miterlimit="10" d="M39,2.57c-1.21,0-2.4,0.06-3.58,0.18C53.86,4.55,68.27,20.09,68.27,39
		c0,18.91-14.41,34.45-32.85,36.25c1.18,0.11,2.37,0.17,3.58,0.17c20.12,0,36.42-16.31,36.42-36.43C75.42,18.88,59.12,2.57,39,2.57z
		"/>
	<g>
		<path stroke="#000000" stroke-miterlimit="10" d="M59.19,38.97c-0.13,0-0.27,0.01-0.4,0.01c-12.21,0-24.42,0-36.64,0
			c-0.15,0-0.29,0-0.46,0c0-5.38,0-10.73,0-16.11c9.8,0,19.59,0,29.41,0c0,1.44,0,2.88,0,4.36c-5.32,0-10.65,0-16,0
			c0,1.97,0,3.89,0,5.85c0.1,0.01,0.2,0.02,0.31,0.02c7.89,0,15.78,0,23.67,0c0.04,0,0.07,0,0.11,0
			C59.19,35.06,59.19,37.01,59.19,38.97z"/>
		<path stroke="#FFFFFF" stroke-miterlimit="10" d="M21.67,60.37c0-6.38,0-12.77,0-19.17c4.47,0,8.91,0,13.39,0
			c0.01,0.1,0.03,0.2,0.03,0.31c0,6.25,0,12.51,0,18.76c0,0.04,0,0.07-0.01,0.11C30.61,60.37,26.14,60.37,21.67,60.37z"/>
	</g>
</g>
</svg>
