<?xml version="1.0" encoding="utf-8"?>
<!-- Generator: Adobe Illustrator 25.3.1, SVG Export Plug-In . SVG Version: 6.00 Build 0)  -->
<svg version="1.1" id="Layer_1" xmlns="http://www.w3.org/2000/svg" xmlns:xlink="http://www.w3.org/1999/xlink" x="0px" y="0px"
	 viewBox="0 0 78 78" enable-background="new 0 0 78 78" xml:space="preserve">
<g>
	<g>
		<path d="M70.32,34.58c-0.22,0-0.45,0.01-0.67,0.01c-20.39,0-40.77,0-61.16,0c-0.24,0-0.48,0-0.77,0c0-8.97,0-17.91,0-26.89
			c16.35,0,32.71,0,49.1,0c0,2.41,0,4.81,0,7.28c-8.88,0-17.78,0-26.7,0c0,3.29,0,6.5,0,9.77c0.17,0.01,0.34,0.04,0.51,0.04
			c13.17,0,26.34,0,39.51,0c0.06,0,0.12,0,0.18-0.01C70.32,28.05,70.32,31.31,70.32,34.58z"/>
		<path d="M7.68,70.3c0-10.66,0-21.31,0-32c7.47,0,14.88,0,22.36,0c0.01,0.16,0.04,0.34,0.04,0.51c0,10.44,0,20.87,0,31.31
			c0,0.06-0.01,0.12-0.01,0.18C22.61,70.3,15.14,70.3,7.68,70.3z"/>
	</g>
	<rect x="55.26" y="38.29" width="13.43" height="7.85"/>
</g>
</svg>
