<svg id="Layer_1" data-name="Layer 1" xmlns="http://www.w3.org/2000/svg" viewBox="0 0 48.34 70.8"><defs><style>.cls-1{fill:#fff;}</style></defs><path d="M64.77,51.09c0-.49,0-1,0-1.47s-.12-.92-.1-1.38-.15-1.07-.21-1.6-.17-.88-.28-1.31-.28-1.08-.43-1.61c-.05-.16-.11-.32-.16-.49s-.21-.63-.33-.94c-.18-.49-.4-1-.59-1.45s-.51-1-.76-1.51-.51-.92-.81-1.35l-.41-.69-.59-1c-.29-.45-.57-.91-.83-1.38a.41.41,0,0,0-.07-.11c-.31-.44-.57-.91-.84-1.37s-.49-.74-.7-1.13a3.87,3.87,0,0,1-.21-.34c-.27-.48-.6-.93-.86-1.43a3.3,3.3,0,0,1-.31-.51c-.2-.29-.37-.6-.57-.9l-.93-1.55a1,1,0,0,0-.08-.11c-.29-.45-.56-.91-.83-1.37-.17-.29-.37-.55-.52-.85s-.25-.41-.38-.62c-.28-.48-.6-.94-.88-1.42-.08-.16-.18-.3-.27-.46-.19-.36-.45-.66-.63-1s-.55-.93-.86-1.39-.62-1.05-1-1.57c-.19-.27-.35-.56-.52-.85s-.27-.41-.39-.62c-.29-.47-.58-.95-.86-1.43l-.15-.22c-.26-.41-.51-.83-.75-1.25s-.49-.8-.74-1.19l-.17-.3c-.31-.48-.59-1-.91-1.47-.11-.19-.24-.38-.34-.57L44,10c-.31-.47-.57-1-.88-1.42A1.63,1.63,0,0,1,43,8.38c-.25-.45-.53-.88-.79-1.32s-.4-.63-.59-1c-.1-.17-.21-.33-.31-.51a5.81,5.81,0,0,0-.92-1.34,1.2,1.2,0,0,1-.32-.57c-.1,0-.21-.18-.3,0s-.18.3-.27.45a4.11,4.11,0,0,0-.88,1.46A10.29,10.29,0,0,0,37.74,7c-.19.33-.37.68-.57,1a2.47,2.47,0,0,1-.31.52,15.21,15.21,0,0,1-.78,1.35,7.5,7.5,0,0,1-.48.88,6.1,6.1,0,0,1-.41.7c-.25.48-.54.95-.81,1.43s-.56,1-.85,1.49c-.56,1-1.12,1.94-1.65,2.92-.23.39-.44.79-.68,1.17a3.23,3.23,0,0,1-.22.41c-.26.44-.51.89-.77,1.34-.13.21-.24.43-.38.62a6.83,6.83,0,0,1-.49.88c-.28.47-.52,1-.8,1.42-.08.14-.15.28-.23.41-.23.37-.42.76-.65,1.12-.55,1-1.13,2-1.68,3-.23.36-.42.75-.65,1.11l-.15.3c-.3.48-.55,1-.84,1.46-.17.24-.27.51-.42.76s-.3.55-.47.81l-.77,1.35a4,4,0,0,0-.2.35c-.22.39-.43.78-.68,1.16s-.51.89-.77,1.34l-.13.24c-.23.46-.53.89-.77,1.35s-.49.75-.68,1.16a3.29,3.29,0,0,1-.21.42,11.5,11.5,0,0,0-.68,1.36,11.75,11.75,0,0,0-.5,1.15l-.12.34c-.19.45-.34.91-.49,1.38s-.29,1-.41,1.54-.22,1-.3,1.48a17.59,17.59,0,0,0-.29,2.9c0,.58,0,1.17,0,1.75a8.84,8.84,0,0,0,0,1.15c0,.13.05.27.07.4,0,.38.13.74.11,1.12s.15,1,.28,1.49.23.89.34,1.34.31,1,.49,1.56A4.71,4.71,0,0,1,18,59q.18.49.39,1c.24.47.42,1,.68,1.45.13.24.29.45.4.7a5.57,5.57,0,0,1,.45.83c.34.48.65,1,1,1.46l.17.21c.28.43.63.81.95,1.21.13.16.27.29.41.44a11.65,11.65,0,0,0,.88,1,7,7,0,0,0,.69.64c.39.27.63.7,1.06.93.12.1.23.22.36.31a31.27,31.27,0,0,0,2.88,2c.42.19.8.44,1.2.66l.32.13c.5.2,1,.48,1.47.68s1.05.37,1.57.58.9.31,1.36.43,1.07.23,1.59.38.89.17,1.35.21,1,.11,1.48.18.94.05,1.41.06,1,0,1.57,0,1,0,1.44-.07.95-.14,1.42-.19,1-.17,1.47-.29,1-.27,1.47-.38l.84-.27.68-.23c.5-.16,1-.39,1.46-.58a31.75,31.75,0,0,0,2.83-1.48l1-.61.55-.4a19.8,19.8,0,0,0,3-2.55,21,21,0,0,0,2.54-3,3.9,3.9,0,0,1,.41-.59c.22-.29.38-.62.59-.92A25.56,25.56,0,0,0,62.79,60c.19-.49.39-1,.57-1.47.07-.23.15-.46.23-.68s.17-.51.25-.77c.14-.52.26-1,.4-1.56s.17-1.11.3-1.66.12-.84.13-1.26S64.81,51.59,64.77,51.09Zm-33,14.09V61.13h1.34l3.08,4.05Zm0-5.17V56.57h.91a4.2,4.2,0,0,1,2,.32A1.22,1.22,0,0,1,35.13,58a1.7,1.7,0,0,1-.71,1.44,3.12,3.12,0,0,1-1.91.53ZM38,65.09s0,.06,0,.09h0L34.6,60.75a4.47,4.47,0,0,0,1.63-1.26,2.79,2.79,0,0,0,.49-1.69,2.08,2.08,0,0,0-1.41-2.07A6.93,6.93,0,0,0,33,55.45H30.23v9.73H27V50.29H38c0,.08,0,.16,0,.24Zm8.62.08H39.66V55.44h6.58v1.13H41.16v3h4.31v1.12H41.16v3.41h5.43Zm-19.53-17V35.26H49.45v3.51H37.27v4.7l.24,0H55.6V48.2ZM48,54.4V50.45H55.6V54.4Zm8,10.77H49V55.44H55.6v1.13H50.52v3h4.3v1.12h-4.3v3.41H56Z" transform="translate(-16.43 -3.6)"/><path class="cls-1" d="M34.6,60.75a4.47,4.47,0,0,0,1.63-1.26,2.79,2.79,0,0,0,.49-1.69,2.08,2.08,0,0,0-1.41-2.07A6.93,6.93,0,0,0,33,55.45H30.23v9.73h1.5V61.13h1.34l3.08,4.05H38ZM32.51,60h-.78V56.57h.91a4.2,4.2,0,0,1,2,.32A1.22,1.22,0,0,1,35.13,58a1.7,1.7,0,0,1-.71,1.44A3.12,3.12,0,0,1,32.51,60Z" transform="translate(-16.43 -3.6)"/><path d="M34.6,60.75a4.47,4.47,0,0,0,1.63-1.26,2.79,2.79,0,0,0,.49-1.69,2.08,2.08,0,0,0-1.41-2.07A6.93,6.93,0,0,0,33,55.45H30.23v9.73h1.5V61.13h1.34l3.08,4.05H38ZM32.51,60h-.78V56.57h.91a4.2,4.2,0,0,1,2,.32A1.22,1.22,0,0,1,35.13,58a1.7,1.7,0,0,1-.71,1.44A3.12,3.12,0,0,1,32.51,60Z" transform="translate(-16.43 -3.6)"/></svg>