<svg id="Layer_1" data-name="Layer 1" xmlns="http://www.w3.org/2000/svg" viewBox="0 0 211.51 309.79"><defs><style>.cls-1{fill:#5daceb;}.cls-2{fill:#fff;}</style></defs><path class="cls-1" d="M159.23,5.5A5.44,5.44,0,0,0,160.61,8c1.88,1.58,2.72,3.88,4,5.84.4.78.92,1.48,1.34,2.24.83,1.42,1.79,2.76,2.6,4.18C169.71,22.2,171,24.07,172,26c.15.25.3.5.46.74,1.39,2,2.53,4.18,3.87,6.21.84,1.31,1.62,2.67,2.44,4,.46.85,1,1.64,1.48,2.49,1.41,2.1,2.64,4.32,4,6.45.25.42.46.86.71,1.28,1.13,1.7,2.18,3.46,3.24,5.21s2.16,3.67,3.32,5.47c.2.32.4.66.62,1C193.44,61,194.71,63,196,65.13c.55.91,1.19,1.77,1.71,2.7.75,1.25,1.46,2.52,2.29,3.72,1.42,2.27,2.76,4.59,4.16,6.87,1.32,2,2.47,4.07,3.77,6.06.75,1.61,1.92,3,2.73,4.53.38.67.82,1.31,1.21,2,1.19,2.12,2.6,4.11,3.82,6.22.56.9,1,1.85,1.67,2.72.63,1.31,1.53,2.46,2.29,3.71,1.17,2,2.37,4,3.63,6,.12.16.23.33.33.49,1.36,2.27,2.71,4.54,4.08,6.8.87,1.29,1.63,2.65,2.49,3.94a18,18,0,0,0,1.34,2.23c1.16,2.15,2.62,4.12,3.8,6.26a14.93,14.93,0,0,0,.91,1.47c.89,1.72,2.09,3.26,3,5,1.21,2,2.35,4.06,3.71,6a3.25,3.25,0,0,1,.3.51c1.14,2,2.36,4.05,3.63,6,.88,1.42,1.73,2.85,2.59,4.27.59,1,1.17,2,1.8,3,1.3,1.91,2.36,3.95,3.53,5.94,1.08,2.2,2.17,4.4,3.3,6.58.86,2.11,1.83,4.19,2.58,6.35.56,1.36,1,2.75,1.46,4.14.23.71.47,1.41.71,2.12.64,2.34,1.32,4.67,1.89,7,.44,1.9.79,3.82,1.2,5.73.28,2.34.61,4.68.92,7-.07,2,.37,4,.46,6s.08,4.3,0,6.45c.19,2.16-.44,4.27-.44,6.41,0,1.86-.44,3.67-.58,5.51-.54,2.4-.75,4.87-1.3,7.27s-1.14,4.56-1.73,6.83c-.38,1.11-.76,2.23-1.12,3.35s-.69,2-1,3c-.77,2.18-1.67,4.3-2.52,6.45a114.12,114.12,0,0,1-6.57,12.66c-.93,1.29-1.61,2.74-2.59,4a19.75,19.75,0,0,0-1.82,2.62,95.31,95.31,0,0,1-11.09,12.9A87.07,87.07,0,0,1,223.34,295c-.77.6-1.58,1.15-2.37,1.72-1.41.91-2.82,1.82-4.26,2.69a137.35,137.35,0,0,1-12.39,6.46c-2.14.83-4.2,1.85-6.39,2.56-1,.29-2,.65-3,1-1.22.39-2.42.85-3.66,1.2-2.16.49-4.27,1.2-6.45,1.65s-4.27.87-6.41,1.28c-2.08.21-4.15.49-6.21.82s-4.21.09-6.3.33c-2.3-.1-4.6.4-6.91,0-2.05,0-4.09-.36-6.15-.23-2.15-.34-4.35-.36-6.49-.79-2-.2-3.93-.59-5.88-.95-2.3-.64-4.66-1-6.95-1.65-2-.54-4-1.28-5.94-1.89-2.28-.9-4.69-1.41-6.88-2.54-2.2-.86-4.23-2.08-6.43-2.94-.48-.18-.94-.39-1.4-.6-1.77-.93-3.43-2.05-5.25-2.88A138,138,0,0,1,95,291.65c-.56-.41-1-.92-1.56-1.37-1.88-1-3-2.9-4.66-4.08a30.19,30.19,0,0,1-3-2.76A53.89,53.89,0,0,1,82,279.16c-.59-.64-1.25-1.23-1.78-1.92A62.22,62.22,0,0,1,76,272l-.73-.93c-1.4-2.14-2.78-4.29-4.25-6.38a23.36,23.36,0,0,0-2-3.61c-.47-1.09-1.2-2-1.77-3.09-1.12-2.05-1.9-4.27-3-6.35-.59-1.42-1.17-2.84-1.71-4.29a15.83,15.83,0,0,0-.91-2.31c-.77-2.26-1.55-4.5-2.15-6.81-.45-2-1-3.91-1.46-5.87-.58-2.13-.83-4.33-1.24-6.49.08-1.66-.57-3.25-.5-4.92a11.67,11.67,0,0,0-.28-1.74,37.06,37.06,0,0,1-.16-5c0-2.54-.12-5.09,0-7.63a76.38,76.38,0,0,1,1.28-12.71c.34-2.17.78-4.33,1.3-6.47s1.17-4.51,1.79-6.76c.64-2,1.3-4.06,2.13-6,.18-.49.36-1,.52-1.47.69-1.7,1.36-3.41,2.21-5,1.1-1.92,1.63-4.12,3-5.93a19.78,19.78,0,0,0,.95-1.83c.83-1.79,2.16-3.29,3-5.09,1-2,2.35-3.87,3.38-5.89L76,148.2c1.14-2,2.42-3.84,3.4-5.9,1.07-1.63,2-3.36,2.94-5.07.28-.52.59-1,.9-1.52,1.13-2,2.23-3.93,3.36-5.89.76-1.13,1.28-2.41,2-3.54s1.12-2.29,1.83-3.36c1.26-2.1,2.38-4.29,3.67-6.37.25-.42.47-.86.68-1.3,1-1.58,1.84-3.27,2.83-4.87,2.4-4.34,5-8.6,7.35-12.95,1-1.58,1.85-3.29,2.86-4.89.36-.58.66-1.2,1-1.81,1.25-2,2.28-4.16,3.51-6.19a30.05,30.05,0,0,0,2.14-3.84c.64-.87,1.11-1.83,1.69-2.74,1.13-1.94,2.21-3.92,3.35-5.86a11,11,0,0,0,1-1.78c1.06-1.67,2-3.43,3-5.13,2.35-4.29,4.8-8.51,7.22-12.75,1.26-2.18,2.51-4.36,3.75-6.56s2.42-4.12,3.55-6.23c.57-1,1.28-2,1.75-3.06a33.8,33.8,0,0,0,2.14-3.86c1.14-2,2.41-3.86,3.41-5.91a12.47,12.47,0,0,0,1.32-2.26c.91-1.42,1.67-2.92,2.52-4.38,1.31-2,2.15-4.34,3.8-6.15l0,0c1.12-2.26,1.91-4.7,3.87-6.45a15.79,15.79,0,0,0,1.18-2C158.31,4.67,158.76,5.28,159.23,5.5Z" transform="translate(-55.85 -5.11)"/><rect class="cls-2" x="138.07" y="204.97" width="33.29" height="17.31"/><path class="cls-2" d="M227.21,200.23c-.45,0-.89,0-1.34,0H102.36V143.64h97.93V159H147v20.58c.34,0,.68.08,1,.08h78.79l.37,0Z" transform="translate(-55.85 -5.11)"/><path class="cls-2" d="M102.26,274.53V209.39H150c0,.33.09.69.09,1v63.72c0,.13,0,.25,0,.38Z" transform="translate(-55.85 -5.11)"/><path class="cls-2" d="M157.49,274.51V231.94h28.76v4.91H164v12.91h18.85v4.91H164V269.6h23.76v4.91Z" transform="translate(-55.85 -5.11)"/><path class="cls-2" d="M198.43,274.51V231.94H227.2v4.91H205v12.91h18.84v4.91H205V269.6h23.75v4.91Z" transform="translate(-55.85 -5.11)"/><path class="cls-1" d="M116.22,274.55V232h11.91q7.43,0,10.32,1.22,6.17,2.56,6.17,9a12.45,12.45,0,0,1-2.14,7.42,19.61,19.61,0,0,1-7.17,5.52L150,274.55H142.1l-13.44-17.72h-5.91v17.72Zm6.53-22.63h3.45q5.28,0,8.37-2.33a7.48,7.48,0,0,0,3.08-6.28c0-2.47-.77-4.15-2.32-5.06s-4.4-1.36-8.56-1.36h-4Z" transform="translate(-55.85 -5.11)"/></svg>